<svg width="162" height="48" viewBox="0 0 162 48" fill="none" xmlns="http://www.w3.org/2000/svg">
<path d="M10.8963 0V16.8288C13.1478 13.0891 16.7374 11.2192 21.6652 11.2192C25.7433 11.2192 29.0356 12.5791 31.542 15.2989C34.0908 18.0187 35.3652 21.716 35.3652 26.3907V47.1717H24.5326V27.8568C24.5326 25.562 23.9167 23.7983 22.6847 22.5659C21.4953 21.291 19.8385 20.6536 17.7145 20.6536C15.5904 20.6536 13.9125 21.291 12.6805 22.5659C11.491 23.7983 10.8963 25.562 10.8963 27.8568V47.1717H0V0H10.8963ZM59.5917 36.0162C61.0361 34.4863 61.7583 32.2765 61.7583 29.3867C61.7583 26.4969 61.0148 24.3083 59.528 22.8209C58.0412 21.291 56.2782 20.5261 54.2392 20.5261C52.2001 20.5261 50.4371 21.291 48.9503 22.8209C47.506 24.3083 46.7838 26.4969 46.7838 29.3867C46.7838 32.2765 47.5272 34.4863 49.014 36.0162C50.5433 37.5461 52.3275 38.3111 54.3666 38.3111C56.4057 38.3111 58.1474 37.5461 59.5917 36.0162ZM41.0489 42.582C37.4805 39.2248 35.6963 34.8051 35.6963 29.323C35.6963 23.8408 37.4805 19.4636 41.0489 16.1914C44.6173 12.8766 49.0353 11.2192 54.3029 11.2192C59.5705 11.2192 63.9673 12.8766 67.4932 16.1914C71.0615 19.4636 72.8457 23.8408 72.8457 29.323C72.8457 34.8051 71.0828 39.2248 67.5569 42.582C64.031 45.9393 59.6342 47.6179 54.3666 47.6179C49.099 47.6179 44.6597 45.9393 41.0489 42.582ZM68.9792 11.6017H80.5764L88.669 38.0561L96.7616 11.6017H108.359L95.7421 47.1717H81.596L68.9792 11.6017ZM122.121 47.6179C116.939 47.6179 112.69 45.9605 109.377 42.6458C106.063 39.2885 104.407 34.8476 104.407 29.323C104.407 23.7983 106.042 19.3999 109.313 16.1276C112.627 12.8554 116.896 11.2192 122.121 11.2192C127.346 11.2192 131.679 12.8341 135.12 16.0639C138.561 19.2937 140.282 23.7771 140.282 29.5142C140.282 30.7466 140.197 31.894 140.027 32.9564H115.558C115.77 34.5288 116.471 35.825 117.661 36.8449C118.85 37.8224 120.125 38.3111 121.484 38.3111C122.886 38.3111 123.927 38.1836 124.606 37.9286C125.286 37.6311 125.775 37.3549 126.072 37.0999C126.412 36.8024 126.837 36.335 127.346 35.6975H139.135C138.115 39.2673 136.076 42.1571 133.017 44.3669C129.959 46.5342 126.327 47.6179 122.121 47.6179ZM128.939 26.1357C128.769 24.4783 128.047 23.1396 126.773 22.1197C125.498 21.0573 123.99 20.5261 122.249 20.5261C120.507 20.5261 119.041 21.0573 117.852 22.1197C116.662 23.1396 115.919 24.4783 115.622 26.1357H128.939ZM151.805 11.6017V18.2312C154.353 13.5566 157.752 11.2192 162 11.2192V22.3109H159.324C156.817 22.3109 154.927 22.9059 153.653 24.0958C152.421 25.2857 151.805 27.3681 151.805 30.3429V47.1717H140.908V11.6017H151.805Z" fill="white" fill-opacity="0.9"/>
<path d="M54.1425 38.9993C58.5979 38.9993 62.2097 34.7001 62.2097 29.3966C62.2097 24.0932 58.5979 19.7939 54.1425 19.7939C49.687 19.7939 46.0752 24.0932 46.0752 29.3966C46.0752 34.7001 49.687 38.9993 54.1425 38.9993Z" fill="white" fill-opacity="0.9"/>
<path d="M62.7715 46.7634L60.4281 40.9084L56.669 44.1286H56.083V27.1494H56.669L68.3371 38.7617V39.6399H63.3084L65.5544 45.5925L62.7715 46.7634Z" fill="#232323"/>
</svg>
