<svg width="269" height="226" viewBox="0 0 269 226" fill="none" xmlns="http://www.w3.org/2000/svg">
<path d="M171.508 20.1832V187.145H42.0425V0H148.199L171.508 20.1832Z" fill="#B9C4C9"/>
<path d="M49.0674 17.0765V6.6076H51.4668V10.2888C51.653 10.0867 51.7825 9.90675 51.9498 9.76153C52.7264 9.07013 53.6546 8.97226 54.6175 9.17431C55.2146 9.30615 55.7541 9.62484 56.1577 10.0841C56.5614 10.5434 56.8081 11.1193 56.8622 11.7284C56.8975 11.9847 56.9154 12.2431 56.9159 12.5019C56.9159 13.9636 56.9159 15.4285 56.9159 16.8934C56.9159 16.947 56.9159 17.0007 56.9159 17.0891H55.9687C55.6941 17.0891 55.4194 17.0891 55.1479 17.0891C55.1098 17.0869 55.0726 17.0762 55.0393 17.0576C55.0059 17.039 54.9772 17.0131 54.9553 16.9818C54.7438 16.4608 54.5481 15.9368 54.3239 15.378H55.8456C55.8005 15.246 55.7379 15.1207 55.6594 15.0054C54.607 13.9699 53.5546 12.9386 52.5023 11.9115C52.4145 11.8448 52.3191 11.7886 52.2181 11.7442V16.6976C52.3188 16.6621 52.4151 16.6155 52.5054 16.5587C52.8211 16.2998 53.1369 16.0315 53.4778 15.7442L54.0208 17.0828L49.0674 17.0765Z" fill="black"/>
<path d="M80.0159 14.5414C79.8102 15.2795 79.3662 15.9288 78.7531 16.3883C77.3103 17.5248 74.5415 17.5501 73.1619 15.8263C72.553 15.0403 72.2431 14.0635 72.2874 13.0702C72.2634 12.2267 72.4981 11.3961 72.9598 10.6898C73.2796 10.2253 73.7025 9.8412 74.1954 9.56736C74.6883 9.29352 75.2379 9.1374 75.8012 9.11123C76.7902 8.99877 77.7875 9.23552 78.6205 9.78053C79.1092 10.0998 79.5142 10.5316 79.8015 11.0397C80.0888 11.5479 80.25 12.1175 80.2716 12.7008C80.2969 13.0165 80.2716 13.3575 80.2716 13.6858C80.2716 13.8753 80.199 13.9352 80.0064 13.9352C78.3711 13.9352 76.7357 13.9352 75.0972 13.9352H74.8225C74.8531 14.2447 74.9922 14.5334 75.2153 14.7501C75.4383 14.9668 75.7309 15.0975 76.0411 15.1191C76.282 15.159 76.5291 15.135 76.7578 15.0497C76.9866 14.9644 77.189 14.8207 77.345 14.633C77.3636 14.6092 77.3869 14.5896 77.4136 14.5754C77.4403 14.5613 77.4696 14.5529 77.4997 14.5509C78.3205 14.5382 79.1572 14.5414 80.0159 14.5414ZM77.746 12.3914C77.6986 11.6653 77.0293 11.1286 76.2053 11.1665C75.4981 11.1917 74.8478 11.7758 74.8478 12.3914H77.746Z" fill="black"/>
<path d="M61.1529 9.07327C61.7985 9.05795 62.4387 9.19522 63.0213 9.47389C63.6038 9.75257 64.1124 10.1648 64.5057 10.6771C65.1048 11.4849 65.3715 12.4916 65.2508 13.49C65.2189 14.3721 64.88 15.2153 64.2926 15.8741C63.7053 16.5329 62.9063 16.966 62.0337 17.0985C60.3131 17.4143 58.8103 16.9628 57.718 15.52C57.0613 14.6518 56.9255 13.6258 57.0266 12.5776C57.1097 11.7371 57.4684 10.9476 58.0468 10.332C58.6252 9.7165 59.3909 9.30946 60.2247 9.1743C60.5309 9.13325 60.8435 9.10484 61.1529 9.07327ZM62.8198 13.1396C62.791 12.8771 62.7457 12.6166 62.6841 12.3598C62.611 12.0635 62.4522 11.7953 62.2277 11.5887C62.0031 11.382 61.7226 11.2462 61.4212 11.198C61.128 11.1246 60.8194 11.143 60.537 11.2509C60.2547 11.3588 60.0123 11.5508 59.8427 11.801C59.6076 12.1358 59.4656 12.5271 59.4312 12.9347C59.3968 13.3424 59.4713 13.7519 59.647 14.1214C59.7425 14.3651 59.8972 14.5812 60.097 14.7502C60.2968 14.9192 60.5356 15.0359 60.7917 15.0898C61.0478 15.1436 61.3133 15.133 61.5643 15.0587C61.8153 14.9845 62.0439 14.849 62.2295 14.6644C62.4252 14.4629 62.5783 14.224 62.6797 13.962C62.7811 13.7001 62.8288 13.4204 62.8198 13.1396V13.1396Z" fill="black"/>
<path d="M73.171 9.17469C72.9184 9.88819 72.6817 10.567 72.4417 11.2426C71.7787 13.1116 71.1094 14.9806 70.4528 16.8527C70.4347 16.9285 70.3892 16.995 70.3251 17.0392C70.261 17.0835 70.1828 17.1026 70.1055 17.0926C69.1584 17.0926 68.2112 17.0926 67.2136 17.0926C66.2823 14.466 65.3509 11.8393 64.4038 9.17469H65.1363C65.6761 9.17469 66.216 9.17469 66.7558 9.17469C66.9389 9.17469 67.0084 9.23151 67.0715 9.402C67.6314 11.2394 68.1923 13.0758 68.7543 14.9111C68.7543 14.9364 68.7732 14.9616 68.8016 15.05C68.8616 14.8606 68.9058 14.7343 68.9468 14.6017C69.4772 12.859 70.0108 11.1184 70.5475 9.37989C70.5696 9.30412 70.6611 9.19047 70.7243 9.18731C71.5167 9.16837 72.3218 9.17469 73.171 9.17469Z" fill="black"/>
<path d="M82.8412 17.0794H80.4355V9.18669H82.8381V10.5474C83.3874 9.73287 84.0283 9.10461 85.0954 9.09198V11.5577C84.8555 11.5577 84.6155 11.5577 84.3756 11.5577C83.2864 11.6524 82.8697 12.0786 82.8507 13.1709C82.8286 14.3706 82.8507 15.5671 82.8507 16.7637L82.8412 17.0794Z" fill="black"/>
<path d="M162.337 29.8943H49.0674V45.0956H162.337V29.8943Z" fill="black"/>
<path opacity="0.5" d="M106.776 51.3721H49.0674V55.9688H106.776V51.3721Z" fill="black"/>
<path opacity="0.3" d="M80.8652 62.2479H49.667V66.8446H80.8652V62.2479Z" fill="black"/>
<path d="M171.546 20.2148H148.2V0L171.508 20.1832L171.546 20.2148Z" fill="#F0F0F0"/>
<path opacity="0.81" d="M97.2697 43.5834H7.16992V180.951H97.2697V43.5834Z" fill="#128277" stroke="white" stroke-width="0.93" stroke-miterlimit="10"/>
<path d="M95.5359 41.4743H5.43604V178.842H95.5359V41.4743Z" fill="#128277" stroke="white" stroke-width="1.66" stroke-miterlimit="10"/>
<path d="M53.793 171.606V161.137H56.1924V164.819C56.3786 164.616 56.5081 164.437 56.6754 164.291C57.452 163.6 58.3802 163.502 59.3431 163.707C59.9399 163.838 60.4793 164.157 60.883 164.615C61.2867 165.074 61.5336 165.65 61.5878 166.258C61.6231 166.514 61.641 166.773 61.6415 167.032C61.6415 168.497 61.6415 169.958 61.6415 171.423C61.6415 171.477 61.6415 171.53 61.6415 171.619H60.6943C60.4197 171.619 60.145 171.619 59.8703 171.619C59.8328 171.616 59.7962 171.605 59.7635 171.587C59.7307 171.568 59.7025 171.542 59.6809 171.512C59.4694 170.994 59.2737 170.467 59.0495 169.911H60.5712C60.5272 169.778 60.4634 169.652 60.3818 169.538C59.3294 168.501 58.2771 167.468 57.2247 166.441C57.1361 166.376 57.0409 166.32 56.9406 166.274V171.227C57.0394 171.191 57.1346 171.146 57.2247 171.092C57.5404 170.83 57.8561 170.561 58.1971 170.274L58.7401 171.613L53.793 171.606Z" fill="white"/>
<path d="M84.7424 169.071C84.5367 169.809 84.0927 170.458 83.4795 170.918C82.0367 172.058 79.268 172.08 77.8883 170.359C77.28 169.572 76.9702 168.594 77.0138 167.6C76.9885 166.757 77.2233 165.927 77.6863 165.223C78.0056 164.758 78.4283 164.373 78.9214 164.099C79.4144 163.825 79.9642 163.669 80.5277 163.644C81.5166 163.533 82.5133 163.77 83.3469 164.313C83.8294 164.637 84.2278 165.071 84.5089 165.579C84.7901 166.088 84.9458 166.656 84.9634 167.237C84.9886 167.552 84.9634 167.893 84.9634 168.222C84.9634 168.414 84.8907 168.471 84.6982 168.471C83.0628 168.471 81.4274 168.471 79.7889 168.471H79.5142C79.5455 168.78 79.685 169.068 79.9079 169.284C80.1309 169.5 80.4231 169.63 80.7329 169.652C80.9738 169.692 81.221 169.669 81.4499 169.583C81.6788 169.498 81.8812 169.354 82.0367 169.166C82.0558 169.143 82.0793 169.123 82.1059 169.109C82.1324 169.095 82.1615 169.086 82.1914 169.084L84.7424 169.071ZM82.4566 166.921C82.4093 166.195 81.74 165.658 80.916 165.696C80.2088 165.721 79.5584 166.305 79.5584 166.921H82.4566Z" fill="white"/>
<path d="M65.8787 163.603C66.5227 163.589 67.161 163.727 67.7418 164.006C68.3226 164.284 68.8297 164.696 69.222 165.207C69.8213 166.016 70.0879 167.023 69.9671 168.023C69.9352 168.905 69.5963 169.748 69.0089 170.407C68.4216 171.066 67.6226 171.499 66.75 171.631C65.0294 171.947 63.5266 171.496 62.4343 170.053C61.7776 169.185 61.6419 168.158 61.7429 167.11C61.8255 166.27 62.1836 165.481 62.7616 164.866C63.3395 164.251 64.1047 163.845 64.9378 163.71C65.2567 163.65 65.5693 163.638 65.8787 163.603ZM67.5456 167.669C67.5162 167.407 67.4709 167.146 67.4098 166.889C67.3364 166.593 67.1775 166.325 66.953 166.119C66.7285 165.912 66.4482 165.776 66.147 165.728C65.8538 165.655 65.5454 165.674 65.2633 165.782C64.9811 165.89 64.7387 166.081 64.5685 166.331C64.3334 166.666 64.1914 167.058 64.157 167.466C64.1227 167.874 64.1971 168.284 64.3727 168.654C64.4686 168.898 64.6236 169.113 64.8235 169.282C65.0235 169.451 65.2623 169.567 65.5184 169.621C65.7745 169.674 66.0398 169.663 66.2907 169.589C66.5415 169.514 66.7698 169.379 66.9552 169.194C67.1511 168.993 67.3043 168.754 67.4057 168.492C67.5072 168.23 67.5547 167.95 67.5456 167.669V167.669Z" fill="white"/>
<path d="M77.8981 163.704C77.6455 164.421 77.4087 165.096 77.1688 165.772C76.5058 167.641 75.8365 169.51 75.1798 171.382C75.1618 171.458 75.1163 171.524 75.0522 171.568C74.9881 171.613 74.9098 171.632 74.8325 171.622C73.8854 171.622 72.9383 171.622 71.9407 171.622C71.0093 168.998 70.078 166.372 69.1309 163.707H69.8538C70.3937 163.707 70.9336 163.707 71.4734 163.707C71.5093 163.699 71.5465 163.698 71.5826 163.706C71.6187 163.713 71.6528 163.728 71.6827 163.749C71.7126 163.771 71.7375 163.798 71.7559 163.83C71.7742 163.862 71.7856 163.898 71.7891 163.934C72.3448 165.772 72.9099 167.606 73.4718 169.443C73.4718 169.469 73.4908 169.494 73.5192 169.582C73.5792 169.393 73.6234 169.267 73.6644 169.134C74.1948 167.396 74.7284 165.655 75.2651 163.912C75.2872 163.837 75.3787 163.723 75.4419 163.723C76.2438 163.701 77.0488 163.704 77.8981 163.704Z" fill="white"/>
<path d="M87.5678 171.609H85.1621V163.716H87.5647V165.093C88.114 164.278 88.7517 163.65 89.822 163.634V166.1C89.582 166.1 89.3389 166.1 89.1021 166.1C88.013 166.195 87.5962 166.621 87.5773 167.716C87.5552 168.913 87.5773 170.109 87.5773 171.306L87.5678 171.609Z" fill="white"/>
<path d="M9.72712 54.9581H1.6671C0.86504 54.9581 0.214844 55.6083 0.214844 56.4103V58.3993C0.214844 59.2013 0.86504 59.8515 1.6671 59.8515H9.72712C10.5292 59.8515 11.1794 59.2013 11.1794 58.3993V56.4103C11.1794 55.6083 10.5292 54.9581 9.72712 54.9581Z" fill="black"/>
<path d="M9.72712 68.5876H1.6671C0.86504 68.5876 0.214844 69.2378 0.214844 70.0398V72.0288C0.214844 72.8309 0.86504 73.4811 1.6671 73.4811H9.72712C10.5292 73.4811 11.1794 72.8309 11.1794 72.0288V70.0398C11.1794 69.2378 10.5292 68.5876 9.72712 68.5876Z" fill="black"/>
<path d="M9.51227 82.2134H1.45225C0.650196 82.2134 0 82.8636 0 83.6657V85.6546C0 86.4567 0.650196 87.1069 1.45225 87.1069H9.51227C10.3143 87.1069 10.9645 86.4567 10.9645 85.6546V83.6657C10.9645 82.8636 10.3143 82.2134 9.51227 82.2134Z" fill="black"/>
<path d="M9.72712 95.8429H1.6671C0.86504 95.8429 0.214844 96.4931 0.214844 97.2952V99.2841C0.214844 100.086 0.86504 100.736 1.6671 100.736H9.72712C10.5292 100.736 11.1794 100.086 11.1794 99.2841V97.2952C11.1794 96.4931 10.5292 95.8429 9.72712 95.8429Z" fill="black"/>
<path d="M9.72712 109.472H1.6671C0.86504 109.472 0.214844 110.122 0.214844 110.924V112.913C0.214844 113.715 0.86504 114.365 1.6671 114.365H9.72712C10.5292 114.365 11.1794 113.715 11.1794 112.913V110.924C11.1794 110.122 10.5292 109.472 9.72712 109.472Z" fill="black"/>
<path d="M9.72712 123.098H1.6671C0.86504 123.098 0.214844 123.748 0.214844 124.55V126.539C0.214844 127.341 0.86504 127.991 1.6671 127.991H9.72712C10.5292 127.991 11.1794 127.341 11.1794 126.539V124.55C11.1794 123.748 10.5292 123.098 9.72712 123.098Z" fill="black"/>
<path d="M9.72712 136.727H1.6671C0.86504 136.727 0.214844 137.377 0.214844 138.179V140.168C0.214844 140.97 0.86504 141.62 1.6671 141.62H9.72712C10.5292 141.62 11.1794 140.97 11.1794 140.168V138.179C11.1794 137.377 10.5292 136.727 9.72712 136.727Z" fill="black"/>
<path d="M9.72712 150.356H1.6671C0.86504 150.356 0.214844 151.006 0.214844 151.808V153.797C0.214844 154.599 0.86504 155.249 1.6671 155.249H9.72712C10.5292 155.249 11.1794 154.599 11.1794 153.797V151.808C11.1794 151.006 10.5292 150.356 9.72712 150.356Z" fill="black"/>
<path d="M9.51227 163.982H1.45225C0.650196 163.982 0 164.632 0 165.434V167.423C0 168.225 0.650196 168.875 1.45225 168.875H9.51227C10.3143 168.875 10.9645 168.225 10.9645 167.423V165.434C10.9645 164.632 10.3143 163.982 9.51227 163.982Z" fill="black"/>
<path opacity="0.81" d="M231.556 92.1205V5.80914L189.983 5.80914V92.1205H231.556Z" fill="#128277"/>
<path d="M232.777 91.0534V4.7421L191.205 4.7421V91.0534H232.777Z" fill="#128277" stroke="white" stroke-width="0.92" stroke-miterlimit="10"/>
<path d="M211.688 47.8993L232.774 91.0534V4.7421L211.688 47.8993Z" fill="#004D47" stroke="white" stroke-width="0.46" stroke-miterlimit="10"/>
<path d="M195.692 48.5562L196.572 49.6865L195.016 50.3558C194.869 49.9237 194.745 49.4842 194.643 49.0392C194.492 48.3288 194.482 47.5952 194.615 46.881C194.749 46.1668 195.022 45.4861 195.42 44.8782C195.833 44.2392 196.397 43.7108 197.061 43.3389C197.725 42.9669 198.47 42.7627 199.231 42.744C200.314 42.6345 201.404 42.8817 202.334 43.4481C202.958 43.8396 203.486 44.3668 203.877 44.9905C204.269 45.6142 204.516 46.3183 204.598 47.0503C204.802 48.2382 204.604 49.4602 204.036 50.5231C202.962 52.4489 201.267 53.2034 199.12 53.0487C198.456 53.02 197.805 52.8496 197.211 52.5491C196.618 52.2485 196.095 51.8247 195.679 51.306L195.496 51.0629L196.913 50.4947V51.9374C197.034 51.8979 197.148 51.8404 197.251 51.767C198.192 50.7672 199.129 49.7633 200.061 48.7551C200.12 48.6736 200.17 48.5857 200.209 48.4931H195.77L195.692 48.5562Z" fill="white"/>
<path d="M163.268 69.6797H113.999V94.8384H163.268V69.6797Z" fill="#128277" stroke="white" stroke-width="1.66" stroke-miterlimit="10"/>
<path d="M138.924 86.2359L140.064 85.3519L140.733 86.9147C140.299 87.063 139.857 87.1884 139.41 87.2904C138.696 87.4424 137.96 87.4517 137.242 87.3179C136.525 87.1841 135.841 86.9097 135.23 86.5106C134.59 86.0958 134.061 85.5316 133.687 84.8667C133.314 84.2017 133.108 83.456 133.087 82.6937C132.975 81.605 133.223 80.5098 133.791 79.5745C134.183 78.9445 134.713 78.4113 135.341 78.0145C135.968 77.6176 136.677 77.3674 137.415 77.2824C138.603 77.0828 139.825 77.2827 140.888 77.8507C142.823 78.9273 143.581 80.6321 143.413 82.7884C143.387 83.4589 143.217 84.1159 142.914 84.7151C142.612 85.3142 142.185 85.8414 141.661 86.2612L141.418 86.4443L140.847 85.0236H142.296C142.257 84.9009 142.199 84.7848 142.125 84.6795C141.117 83.7344 140.108 82.7936 139.098 81.857C139.015 81.7986 138.927 81.7479 138.836 81.7055V86.1664L138.924 86.2359Z" fill="white"/>
<path d="M161.696 68.1078H112.426V93.2665H161.696V68.1078Z" fill="#128277" stroke="white" stroke-width="1.66" stroke-miterlimit="10"/>
<path d="M137.351 84.6633L138.491 83.7793L139.16 85.3421C138.726 85.4904 138.285 85.6158 137.837 85.7178C137.124 85.8698 136.387 85.8791 135.67 85.7453C134.952 85.6115 134.268 85.3371 133.657 84.938C133.016 84.5227 132.486 83.9577 132.112 83.2916C131.738 82.6255 131.531 81.8784 131.511 81.1147C131.402 80.0259 131.651 78.9312 132.218 77.9955C132.61 77.3672 133.14 76.8355 133.766 76.4398C134.392 76.0441 135.1 75.7946 135.836 75.7098C137.024 75.5102 138.246 75.71 139.309 76.2781C141.244 77.3547 142.002 79.0595 141.834 81.2158C141.807 81.8862 141.637 82.543 141.335 83.142C141.032 83.7411 140.605 84.2684 140.082 84.6886L139.839 84.8717L139.309 83.4352H140.761C140.721 83.3138 140.664 83.1989 140.59 83.0942C139.584 82.1492 138.575 81.2084 137.563 80.2718C137.48 80.2134 137.393 80.1627 137.301 80.1203V84.5875L137.351 84.6633Z" fill="white"/>
<path d="M160.298 66.7125H111.028V91.8713H160.298V66.7125Z" fill="#128277" stroke="white" stroke-width="1.66" stroke-miterlimit="10"/>
<path d="M135.956 83.2651L137.099 82.3779L137.762 83.9565C137.328 84.1048 136.886 84.2302 136.439 84.3322C135.725 84.4842 134.989 84.4935 134.271 84.3597C133.554 84.2259 132.87 83.9515 132.259 83.5524C131.617 83.1364 131.087 82.5702 130.713 81.9029C130.34 81.2356 130.135 80.4873 130.115 79.7228C130.005 78.6338 130.253 77.5385 130.823 76.6036C131.216 75.9759 131.746 75.4452 132.373 75.051C133 74.6568 133.708 74.4095 134.444 74.3274C135.632 74.1263 136.853 74.3251 137.917 74.8925C139.852 75.9691 140.61 77.6739 140.442 79.8302C140.414 80.5007 140.243 81.1576 139.941 81.7566C139.638 82.3556 139.21 82.8828 138.687 83.3029C138.617 83.3629 138.539 83.4166 138.444 83.4861L137.872 82.0654H139.321C139.282 81.943 139.224 81.8271 139.151 81.7213C138.147 80.7783 137.138 79.8375 136.123 78.8988C136.041 78.8397 135.954 78.789 135.861 78.7473V83.2114L135.956 83.2651Z" fill="white"/>
<path d="M249.905 102.593H116.206C113.346 102.593 111.028 104.911 111.028 107.77V179.881C111.028 182.74 113.346 185.059 116.206 185.059H249.905C252.765 185.059 255.083 182.74 255.083 179.881V107.77C255.083 104.911 252.765 102.593 249.905 102.593Z" fill="#52958B"/>
<path d="M246.141 106.349H119.448C116.583 106.349 114.261 108.672 114.261 111.536V176.553C114.261 179.418 116.583 181.74 119.448 181.74H246.141C249.006 181.74 251.328 179.418 251.328 176.553V111.536C251.328 108.672 249.006 106.349 246.141 106.349Z" fill="#F0F0F0"/>
<path d="M268.188 225.374H97.27L112.282 185.058H253.176L268.188 225.374Z" fill="#128277"/>
<path d="M257.181 206.766H108.114L114.15 188.553H250.76L257.181 206.766Z" fill="#F0F0F0"/>
<path d="M202.144 222.1H159.164L164.404 210.132H196.903L202.144 222.1Z" fill="#F0F0F0"/>
<path d="M161.343 150.52V138.059H164.2V142.441C164.421 142.198 164.579 141.986 164.775 141.81C165.7 140.989 166.805 140.862 167.951 141.112C168.661 141.269 169.304 141.649 169.784 142.195C170.265 142.742 170.559 143.427 170.625 144.152C170.663 144.457 170.684 144.764 170.688 145.071C170.688 146.814 170.688 148.544 170.688 150.299C170.688 150.362 170.688 150.428 170.688 150.529H169.548C169.232 150.529 168.895 150.529 168.569 150.529C168.524 150.525 168.481 150.512 168.442 150.489C168.402 150.467 168.368 150.437 168.342 150.4C168.093 149.769 167.859 149.156 167.603 148.506H169.415C169.362 148.348 169.286 148.198 169.191 148.061C167.947 146.825 166.698 145.597 165.444 144.376C165.339 144.299 165.225 144.233 165.106 144.181V150.075C165.224 150.032 165.337 149.977 165.444 149.911C165.826 149.595 166.198 149.279 166.606 148.938L167.237 150.533L161.343 150.52Z" fill="black"/>
<path d="M198.179 147.502C197.938 148.382 197.415 149.158 196.689 149.711C194.969 151.066 191.676 151.094 190.034 149.042C189.309 148.106 188.941 146.942 188.995 145.759C188.961 144.752 189.24 143.759 189.794 142.917C190.173 142.359 190.676 141.898 191.265 141.569C191.854 141.24 192.511 141.053 193.185 141.023C194.362 140.89 195.549 141.171 196.541 141.819C197.114 142.203 197.588 142.719 197.923 143.323C198.258 143.927 198.444 144.601 198.467 145.292C198.495 145.68 198.467 146.075 198.467 146.466C198.467 146.693 198.381 146.763 198.151 146.76C196.203 146.76 194.255 146.76 192.31 146.76H191.995C192.034 147.127 192.2 147.469 192.466 147.727C192.731 147.984 193.078 148.14 193.447 148.168C194.047 148.202 194.599 148.105 194.997 147.587C195.044 147.532 195.111 147.498 195.183 147.492C196.162 147.502 197.157 147.502 198.179 147.502ZM195.461 144.944C195.404 144.079 194.609 143.454 193.627 143.486C192.784 143.514 192.01 144.209 192.01 144.944H195.461Z" fill="black"/>
<path d="M175.729 140.995C176.496 140.976 177.257 141.138 177.95 141.467C178.643 141.796 179.249 142.283 179.72 142.889C180.433 143.851 180.749 145.051 180.603 146.239C180.436 148.49 178.997 150.144 176.774 150.536C174.728 150.896 172.941 150.375 171.641 148.642C170.858 147.609 170.693 146.397 170.817 145.14C170.915 144.14 171.342 143.201 172.03 142.468C172.718 141.735 173.629 141.251 174.621 141.09C174.984 141.049 175.36 141.033 175.729 140.995ZM177.712 145.835C177.678 145.516 177.624 145.2 177.551 144.888C177.464 144.537 177.276 144.22 177.01 143.975C176.745 143.729 176.414 143.567 176.057 143.508C175.71 143.423 175.345 143.446 175.011 143.574C174.677 143.702 174.39 143.929 174.188 144.225C173.557 145.087 173.579 146.053 173.952 146.987C174.07 147.274 174.256 147.528 174.496 147.726C174.735 147.924 175.019 148.06 175.323 148.122C175.627 148.184 175.941 148.171 176.239 148.083C176.537 147.996 176.808 147.836 177.03 147.619C177.551 147.164 177.674 146.52 177.712 145.835Z" fill="black"/>
<path d="M190.034 141.115L189.166 143.574C188.376 145.784 187.587 148.026 186.798 150.254C186.779 150.346 186.726 150.427 186.649 150.48C186.571 150.534 186.477 150.554 186.384 150.539C185.251 150.539 184.114 150.539 182.943 150.539C181.835 147.416 180.733 144.291 179.6 141.118H180.468C181.099 141.118 181.756 141.118 182.397 141.118C182.439 141.111 182.481 141.113 182.522 141.123C182.563 141.133 182.602 141.151 182.636 141.177C182.67 141.202 182.698 141.234 182.719 141.27C182.741 141.307 182.754 141.347 182.76 141.389C183.423 143.576 184.091 145.762 184.765 147.947C184.765 147.975 184.784 148.007 184.818 148.111C184.891 147.887 184.941 147.735 184.989 147.577C185.62 145.506 186.252 143.435 186.883 141.364C186.911 141.273 187.019 141.137 187.091 141.137C188.064 141.099 189.02 141.115 190.034 141.115Z" fill="black"/>
<path d="M201.545 150.523H198.678V141.137H201.539V142.756C202.192 141.787 202.956 141.042 204.225 141.023V143.959C203.941 143.959 203.654 143.937 203.37 143.959C202.075 144.073 201.58 144.591 201.554 145.882C201.529 147.306 201.554 148.723 201.554 150.157L201.545 150.523Z" fill="black"/>
</svg>
