<svg width="419" height="546" viewBox="0 0 419 546" fill="none" xmlns="http://www.w3.org/2000/svg">
<path d="M98.592 384.496C81.536 384.496 66.144 380.856 52.416 373.576C38.896 366.296 28.184 355.896 20.28 342.376C12.584 328.856 8.736 313.048 8.736 294.952C8.736 277.064 12.688 261.36 20.592 247.84C28.496 234.112 39.312 223.608 53.04 216.328C66.768 209.048 82.16 205.408 99.216 205.408C116.272 205.408 131.664 209.048 145.392 216.328C159.12 223.608 169.936 234.112 177.84 247.84C185.744 261.36 189.696 277.064 189.696 294.952C189.696 312.84 185.64 328.648 177.528 342.376C169.624 355.896 158.704 366.296 144.768 373.576C131.04 380.856 115.648 384.496 98.592 384.496ZM98.592 338.32C108.784 338.32 117.416 334.576 124.488 327.088C131.768 319.6 135.408 308.888 135.408 294.952C135.408 281.016 131.872 270.304 124.8 262.816C117.936 255.328 109.408 251.584 99.216 251.584C88.816 251.584 80.184 255.328 73.32 262.816C66.456 270.096 63.024 280.808 63.024 294.952C63.024 308.888 66.352 319.6 73.008 327.088C79.872 334.576 88.4 338.32 98.592 338.32Z" fill="white"/>
<ellipse cx="101.5" cy="295" rx="39.5" ry="47" fill="white"/>
<path d="M141.749 373L130.275 346.134L111.869 360.91H109V283H111.869L169 336.284V340.313H144.378L155.375 367.627L141.749 373Z" fill="black"/>
</svg>
