<svg width="389" height="389" viewBox="0 0 389 389" fill="none" xmlns="http://www.w3.org/2000/svg">
<g opacity="0.65">
<path d="M194.672 46.334L27.6816 176.186H361.665L194.672 46.334Z" fill="white" stroke="#231F20" stroke-width="1.53" stroke-miterlimit="10"/>
<path d="M318.961 128.005V209.259L194.5 306.038L74.8164 212.974V89.9331H275.007L318.961 128.005Z" fill="#B9C4C9"/>
<path d="M88.0615 122.146V102.396H92.5817V109.34C92.8661 108.992 93.1687 108.66 93.4881 108.344C94.9546 107.041 96.7051 106.858 98.5178 107.24C100.852 107.73 102.439 109.605 102.758 112.055C102.821 112.538 102.854 113.024 102.855 113.51C102.855 116.272 102.855 119.034 102.855 121.792C102.855 121.897 102.855 121.998 102.855 122.181H101.05C100.533 122.181 100.015 122.181 99.4942 122.181C99.4224 122.176 99.3527 122.154 99.2902 122.119C99.2276 122.083 99.1737 122.034 99.1325 121.975C98.7435 120.998 98.3545 120.007 97.9655 118.952H100.836C100.751 118.703 100.63 118.468 100.478 118.252C98.5101 116.294 96.5313 114.349 94.5423 112.417C94.3758 112.293 94.1957 112.189 94.0054 112.106V121.442C94.1941 121.378 94.3743 121.292 94.5423 121.185C95.1491 120.695 95.7365 120.189 96.3822 119.649L97.4014 122.169L88.0615 122.146Z" fill="black"/>
<path d="M146.879 113.888C146.707 111.589 145.785 109.702 143.825 108.372C142.253 107.346 140.372 106.903 138.507 107.119C137.442 107.162 136.402 107.454 135.469 107.971C134.537 108.489 133.739 109.217 133.139 110.099C132.264 111.427 131.821 112.994 131.871 114.584C131.788 116.458 132.373 118.301 133.52 119.785C136.123 123.033 141.335 122.99 144.062 120.839C145.209 119.967 146.039 118.745 146.427 117.358C144.809 117.358 143.23 117.358 141.65 117.358C141.537 117.369 141.433 117.424 141.359 117.509C140.728 118.334 139.853 118.486 138.9 118.427C138.316 118.386 137.766 118.141 137.345 117.734C136.925 117.327 136.661 116.784 136.601 116.202H137.122C140.203 116.202 143.288 116.202 146.381 116.202C146.742 116.202 146.879 116.097 146.875 115.732C146.867 115.144 146.921 114.506 146.879 113.888ZM136.652 113.304C136.652 112.137 137.877 111.04 139.211 110.994C140.767 110.947 142.028 111.935 142.117 113.304H136.652Z" fill="black"/>
<path d="M117.178 110.087C115.58 108.037 113.432 107.107 110.853 107.061C110.27 107.127 109.686 107.15 109.099 107.259C106.181 107.788 103.412 110.064 103.073 113.67C102.883 115.665 103.139 117.583 104.376 119.217C106.438 121.94 109.27 122.772 112.514 122.2C116.035 121.578 118.306 118.956 118.583 115.397C118.723 113.46 118.392 111.643 117.178 110.087ZM112.899 117.606C112.547 117.951 112.116 118.203 111.643 118.342C111.17 118.48 110.67 118.499 110.188 118.399C109.706 118.298 109.256 118.08 108.878 117.764C108.5 117.448 108.206 117.044 108.021 116.587C107.434 115.105 107.414 113.569 108.41 112.203C108.731 111.735 109.186 111.376 109.715 111.173C110.245 110.97 110.823 110.933 111.374 111.067C111.938 111.163 112.462 111.421 112.881 111.81C113.301 112.199 113.598 112.702 113.736 113.257C113.853 113.741 113.937 114.233 113.988 114.728C113.938 115.805 113.736 116.821 112.915 117.591L112.899 117.606Z" fill="black"/>
<path d="M133.517 107.236C133.042 108.586 132.595 109.862 132.144 111.126C130.891 114.65 129.631 118.175 128.394 121.707C128.364 121.852 128.278 121.98 128.156 122.064C128.033 122.149 127.883 122.182 127.736 122.158C125.939 122.138 124.138 122.158 122.29 122.158L116.996 107.232H118.373C119.392 107.232 120.408 107.232 121.427 107.232C121.493 107.22 121.561 107.223 121.627 107.238C121.692 107.254 121.754 107.283 121.808 107.323C121.862 107.364 121.907 107.415 121.94 107.473C121.974 107.532 121.995 107.597 122.003 107.664C123.049 111.126 124.115 114.588 125.177 118.05L125.262 118.311C125.375 117.957 125.457 117.715 125.535 117.467C126.538 114.183 127.544 110.902 128.553 107.621C128.6 107.477 128.771 107.263 128.888 107.259C130.397 107.228 131.914 107.236 133.517 107.236Z" fill="black"/>
<path d="M151.756 122.146H147.213V107.275H151.749V109.842C152.779 108.305 153.989 107.119 156.004 107.092V111.76C155.549 111.76 155.098 111.729 154.647 111.76C152.593 111.935 151.811 112.74 151.772 114.806C151.733 117.062 151.772 119.318 151.772 121.578L151.756 122.146Z" fill="black"/>
<path d="M319.031 128.059H275.008V89.937L318.965 128.001L319.031 128.059Z" fill="#F0F0F0"/>
<path d="M74.816 176.186H27.5098L27.6809 176.322L74.816 212.973L194.5 306.038L318.96 209.258L361.49 176.186H318.96" stroke="#231F20" stroke-width="1.53" stroke-miterlimit="10"/>
<path d="M248.279 141.001C248.279 142.635 245.603 143.977 242.328 143.977H94.0835C90.8081 143.977 88.1279 142.635 88.1279 141.001C88.1279 139.367 90.8081 138.021 94.0835 138.021H242.347C245.603 138.021 248.279 139.364 248.279 141.001Z" fill="#F0F0F0"/>
<path d="M248.279 154.694C248.279 156.331 245.603 157.669 242.328 157.669H94.0835C90.8081 157.669 88.1279 156.331 88.1279 154.694C88.1279 153.056 90.8081 151.714 94.0835 151.714H242.347C245.603 151.71 248.279 153.056 248.279 154.694Z" fill="#F0F0F0"/>
<path d="M248.279 166.838C248.279 168.476 245.603 169.814 242.328 169.814H94.0835C90.8081 169.814 88.1279 168.476 88.1279 166.838C88.1279 165.2 90.8081 163.862 94.0835 163.862H242.347C245.603 163.862 248.279 165.2 248.279 166.838Z" fill="#F0F0F0"/>
<path d="M248.279 178.983C248.279 180.62 245.603 181.959 242.328 181.959H94.0835C90.8081 181.959 88.1279 180.62 88.1279 178.983C88.1279 177.345 90.8081 176.007 94.0835 176.007H242.347C245.603 176.007 248.279 177.345 248.279 178.983Z" fill="#F0F0F0"/>
<path d="M248.279 191.314C248.279 192.951 245.603 194.29 242.328 194.29H94.0835C90.8081 194.29 88.1279 192.951 88.1279 191.314C88.1279 189.676 90.8081 188.338 94.0835 188.338H242.347C245.603 188.338 248.279 189.676 248.279 191.314Z" fill="#F0F0F0"/>
<path d="M248.279 203.646C248.279 205.283 245.603 206.625 242.328 206.625H94.0835C90.8081 206.625 88.1279 205.283 88.1279 203.646C88.1279 202.008 90.8081 200.67 94.0835 200.67H242.347C245.603 200.67 248.279 202.008 248.279 203.646Z" fill="#F0F0F0"/>
<path d="M248.279 217.999C248.279 219.637 245.603 220.975 242.328 220.975H94.0835C90.8081 220.975 88.1279 219.637 88.1279 217.999C88.1279 216.362 90.8081 215.023 94.0835 215.023H242.347C245.603 215.023 248.279 216.362 248.279 217.999Z" fill="#F0F0F0"/>
<path d="M242.347 226.732C245.623 226.732 248.299 228.071 248.299 229.708C248.299 231.346 245.623 232.684 242.347 232.684H106.119C102.848 232.684 98.4445 231.346 96.34 229.708C94.2355 228.071 95.173 226.732 98.464 226.732H242.347Z" fill="#F0F0F0"/>
<path d="M199.269 216.462C196.648 214.455 192.353 214.455 189.731 216.462L29.3931 339.021C26.7713 341.028 27.3275 342.67 30.6301 342.67H358.37C361.673 342.67 362.229 341.028 359.607 339.021L199.269 216.462Z" fill="white"/>
<path d="M199.269 216.462C196.648 214.455 192.353 214.455 189.731 216.462L29.3931 339.021C26.7713 341.028 27.3275 342.67 30.6301 342.67H358.37C361.673 342.67 362.229 341.028 359.607 339.021L199.269 216.462Z" stroke="#231F20" stroke-width="1.54" stroke-miterlimit="10"/>
<path d="M74.8168 342.666H27.6816V340.324V176.007H74.8168" stroke="#231F20" stroke-width="1.53" stroke-miterlimit="10"/>
<path d="M318.961 176.007H361.661V340.589V342.666H318.961" stroke="#231F20" stroke-width="1.53" stroke-miterlimit="10"/>
<path d="M361.665 176.186L255.246 258.883L361.661 340.589L361.665 176.186Z" fill="white" stroke="#231F20" stroke-width="1.53" stroke-miterlimit="10"/>
<path d="M27.6816 341.538L134.1 258.84L27.6855 177.135L27.6816 341.538Z" fill="white" stroke="#231F20" stroke-width="1.53" stroke-miterlimit="10"/>
</g>
</svg>
