<svg width="277" height="275" viewBox="0 0 277 275" fill="none" xmlns="http://www.w3.org/2000/svg">
<path d="M96.7737 129.546C110.49 129.546 121.609 118.915 121.609 105.801C121.609 92.6866 110.49 82.0556 96.7737 82.0556C83.0574 82.0556 71.9382 92.6866 71.9382 105.801C71.9382 118.915 83.0574 129.546 96.7737 129.546Z" fill="#D61A3C"/>
<path d="M96.82 127.388C109.265 127.388 119.353 117.742 119.353 105.844C119.353 93.9456 109.265 84.3001 96.82 84.3001C84.3753 84.3001 74.2869 93.9456 74.2869 105.844C74.2869 117.742 84.3753 127.388 96.82 127.388Z" fill="white"/>
<path d="M96.734 125.423C108.048 125.423 117.22 116.654 117.22 105.836C117.22 95.0184 108.048 86.2491 96.734 86.2491C85.4196 86.2491 76.2476 95.0184 76.2476 105.836C76.2476 116.654 85.4196 125.423 96.734 125.423Z" fill="#D61A3C"/>
<path d="M96.9401 123.455C107.046 123.455 115.238 115.622 115.238 105.96C115.238 96.2979 107.046 88.4652 96.9401 88.4652C86.8344 88.4652 78.6421 96.2979 78.6421 105.96C78.6421 115.622 86.8344 123.455 96.9401 123.455Z" fill="white"/>
<path d="M97.0201 121.291C105.933 121.291 113.157 114.384 113.157 105.862C113.157 97.3413 105.933 90.4336 97.0201 90.4336C88.1077 90.4336 80.8828 97.3413 80.8828 105.862C80.8828 114.384 88.1077 121.291 97.0201 121.291Z" fill="#D61A3C"/>
<path d="M97.0537 119.519C104.973 119.519 111.394 113.381 111.394 105.809C111.394 98.237 104.973 92.0987 97.0537 92.0987C89.134 92.0987 82.7139 98.237 82.7139 105.809C82.7139 113.381 89.134 119.519 97.0537 119.519Z" fill="white"/>
<path d="M97.0539 117.956C104.04 117.956 109.704 112.542 109.704 105.862C109.704 99.182 104.04 93.767 97.0539 93.767C90.0674 93.767 84.4038 99.182 84.4038 105.862C84.4038 112.542 90.0674 117.956 97.0539 117.956Z" fill="#D61A3C"/>
<path d="M97.1459 116.121C103.021 116.121 107.783 111.567 107.783 105.95C107.783 100.334 103.021 95.7803 97.1459 95.7803C91.2712 95.7803 86.5088 100.334 86.5088 105.95C86.5088 111.567 91.2712 116.121 97.1459 116.121Z" fill="white"/>
<path d="M97.146 114.502C102.081 114.502 106.081 110.677 106.081 105.959C106.081 101.241 102.081 97.4163 97.146 97.4163C92.2113 97.4163 88.2109 101.241 88.2109 105.959C88.2109 110.677 92.2113 114.502 97.146 114.502Z" fill="#D61A3C"/>
<path d="M103.976 107.56C104.903 103.903 102.554 100.221 98.7294 99.3349C94.9049 98.4489 91.0533 100.695 90.1266 104.352C89.1999 108.008 91.5491 111.691 95.3737 112.577C99.1982 113.463 103.05 111.217 103.976 107.56Z" fill="white"/>
<path d="M98.0617 111.102C101.044 110.624 103.056 107.924 102.555 105.073C102.055 102.221 99.231 100.298 96.2486 100.777C93.2663 101.255 91.2545 103.955 91.7552 106.806C92.2559 109.658 95.0794 111.581 98.0617 111.102Z" fill="#D61A3C"/>
<path d="M217.476 140.454H64.2406C60.9632 140.454 58.3064 142.995 58.3064 146.128V225.15C58.3064 228.283 60.9632 230.824 64.2406 230.824H217.476C220.753 230.824 223.41 228.283 223.41 225.15V146.128C223.41 142.995 220.753 140.454 217.476 140.454Z" fill="#128277"/>
<path d="M213.161 144.572H67.9524C64.67 144.572 62.009 147.116 62.009 150.254V221.504C62.009 224.642 64.67 227.186 67.9524 227.186H213.161C216.443 227.186 219.104 224.642 219.104 221.504V150.254C219.104 147.116 216.443 144.572 213.161 144.572Z" fill="#F0F0F0"/>
<path d="M238.43 275H42.5352L59.7436 230.823H221.222L238.43 275Z" fill="#128277"/>
<path d="M225.814 254.61H54.9639L61.8829 234.652H218.455L225.814 254.61Z" fill="#F0F0F0"/>
<path d="M162.736 271.41H113.475L119.483 258.297H156.728L162.736 271.41Z" fill="#F0F0F0"/>
<path d="M274.479 83.4177C274.481 84.4108 274.349 85.3999 274.085 86.3604C273.401 88.8652 271.869 91.083 269.728 92.6679C267.587 94.2527 264.958 95.1153 262.25 95.121H224.799C221.613 95.1116 218.556 93.9176 216.274 91.7916C213.992 89.6656 212.665 86.7744 212.573 83.7296C212.573 83.6295 212.573 83.5295 212.573 83.4353C212.573 83.3412 212.573 83.2352 212.573 83.141C212.658 80.1503 213.943 77.3054 216.162 75.1956C216.961 74.4315 217.866 73.7761 218.852 73.2475C219.362 72.9729 219.893 72.7349 220.44 72.5354C221.831 72.0224 223.308 71.76 224.799 71.7614H262.25C263.856 71.761 265.446 72.0631 266.93 72.6503C268.413 73.2376 269.761 74.0985 270.897 75.1839C272.032 76.2693 272.933 77.558 273.548 78.9763C274.162 80.3946 274.479 81.9148 274.479 83.45V83.4177Z" fill="#ABD8D3"/>
<path d="M232.862 80.8283C240.157 80.8283 246.07 75.1748 246.07 68.2009C246.07 61.227 240.157 55.5735 232.862 55.5735C225.568 55.5735 219.655 61.227 219.655 68.2009C219.655 75.1748 225.568 80.8283 232.862 80.8283Z" fill="#ABD8D3"/>
<path d="M251.57 87.4612C258.864 87.4612 264.777 81.8077 264.777 74.8338C264.777 67.8599 258.864 62.2064 251.57 62.2064C244.275 62.2064 238.362 67.8599 238.362 74.8338C238.362 81.8077 244.275 87.4612 251.57 87.4612Z" fill="#ABD8D3"/>
<path d="M89.907 50.6535C89.8924 54.9602 88.0963 59.0865 84.9108 62.1316C81.7254 65.1767 77.4093 66.8931 72.9048 66.9063H20.8424C19.5408 66.9072 18.2436 66.764 16.9765 66.4796C13.1851 65.6235 9.81603 63.549 7.43249 60.6029C5.04896 57.6567 3.79547 54.0175 3.8816 50.2938C3.96774 46.57 5.38827 42.9874 7.9057 40.1449C10.4231 37.3024 13.8849 35.3723 17.7122 34.6773C18.7435 34.4851 19.7916 34.3866 20.8424 34.383H72.9048C75.5887 34.3811 78.2343 34.9925 80.621 36.1663C83.4125 37.5312 85.7563 39.6057 87.3945 42.1616C89.0328 44.7175 89.9022 47.6558 89.907 50.6535V50.6535Z" fill="#ABD8D3"/>
<path d="M81.4431 30.9666C81.4745 33.2915 81.0228 35.5992 80.114 37.7558C79.2053 39.9124 77.8576 41.875 76.1492 43.5297C74.4408 45.1844 72.4057 46.4982 70.162 47.3949C67.9183 48.2916 65.5107 48.7533 63.0789 48.7533C60.647 48.7533 58.2394 48.2916 55.9957 47.3949C53.752 46.4982 51.7169 45.1844 50.0085 43.5297C48.3002 41.875 46.9525 39.9124 46.0437 37.7558C45.1349 35.5992 44.6832 33.2915 44.7147 30.9666C44.7102 26.5332 46.4602 22.2623 49.6133 19.0116C52.7664 15.7609 57.089 13.771 61.7132 13.4417C66.3374 13.1124 70.9207 14.4679 74.5427 17.2361C78.1648 20.0042 80.5573 23.9801 81.2399 28.3652C81.3762 29.2262 81.4441 30.0958 81.4431 30.9666Z" fill="#ABD8D3"/>
<path d="M53.9483 38.6819C53.9489 42.1549 52.8723 45.5501 50.8546 48.4382C48.8369 51.3262 45.9688 53.5773 42.6129 54.9068C39.2571 56.2362 35.5643 56.5844 32.0015 55.9072C28.4386 55.23 25.1659 53.5578 22.5971 51.1022C20.0283 48.6466 18.2788 45.5178 17.5699 42.1116C16.861 38.7053 17.2246 35.1745 18.6145 31.9658C20.0045 28.757 22.3585 26.0145 25.3788 24.0849C28.3991 22.1553 31.95 21.1254 35.5825 21.1254C35.798 21.1254 36.0104 21.1254 36.2227 21.1254C39.208 21.2193 42.1237 22.0114 44.7146 23.4325C45.1886 23.6954 45.6482 23.9759 46.0935 24.2741C48.5211 25.8891 50.5035 28.0422 51.8714 30.5491C53.2393 33.0561 53.9518 35.8425 53.9483 38.6701V38.6819Z" fill="#ABD8D3"/>
<path d="M87.9652 152.837H75.1797V220.371H87.9652V152.837Z" fill="#1FA390"/>
<path d="M109.559 152.837H96.7739V220.371H109.559V152.837Z" fill="#1FA390"/>
<path d="M132.877 152.837H120.092V220.371H132.877V152.837Z" fill="#1FA390"/>
<path d="M156.977 152.837H144.192V220.371H156.977V152.837Z" fill="#1FA390"/>
<path d="M181.653 152.837H168.868V220.371H181.653V152.837Z" fill="#1FA390"/>
<path d="M205.658 152.837H192.872V220.371H205.658V152.837Z" fill="#2C6D65"/>
<path d="M87.9652 152.837H75.1797V203.388H87.9652V152.837Z" fill="#128277"/>
<path d="M109.559 152.837H96.7739V194.927H109.559V152.837Z" fill="#128277"/>
<path d="M132.877 152.837H120.092V187.571H132.877V152.837Z" fill="#128277"/>
<path d="M156.977 152.837H144.192V180.017H156.977V152.837Z" fill="#128277"/>
<path d="M181.653 152.837H168.868V171.583H181.653V152.837Z" fill="#128277"/>
<path d="M205.658 124.398H192.872V220.37H205.658V124.398Z" fill="#1FA390"/>
<path d="M199.264 102.622L185.937 124.693H212.591L199.264 102.622Z" fill="#1FA390"/>
<path opacity="0.8" d="M262.08 212.825L260.548 213.899L256.183 208.158L257.719 207.084L262.08 212.825Z" fill="#128277"/>
<path d="M248.548 212.113C257.211 212.113 264.233 205.399 264.233 197.117C264.233 188.835 257.211 182.121 248.548 182.121C239.886 182.121 232.863 188.835 232.863 197.117C232.863 205.399 239.886 212.113 248.548 212.113Z" fill="#59CBCC"/>
<path d="M261.069 212.541L260.643 212.836C259.705 213.487 259.497 214.742 260.178 215.639L271.776 230.913C272.457 231.81 273.77 232.009 274.708 231.358L275.134 231.063C276.072 230.411 276.281 229.156 275.599 228.259L264.001 212.986C263.32 212.089 262.008 211.889 261.069 212.541Z" fill="#128277"/>
<path d="M248.418 210.895C256.321 210.895 262.727 204.77 262.727 197.214C262.727 189.659 256.321 183.533 248.418 183.533C240.515 183.533 234.109 189.659 234.109 197.214C234.109 204.77 240.515 210.895 248.418 210.895Z" fill="#E0E0E0"/>
<path d="M259.948 189.178L236.972 205.219C235.844 203.778 235.026 202.137 234.566 200.392C234.106 198.647 234.013 196.832 234.292 195.052C234.571 193.272 235.217 191.563 236.192 190.024C237.166 188.484 238.451 187.145 239.971 186.084C241.492 185.022 243.217 184.26 245.047 183.841C246.878 183.422 248.777 183.354 250.635 183.642C252.494 183.93 254.273 184.567 255.872 185.517C257.471 186.468 258.856 187.712 259.948 189.178V189.178Z" fill="#F5F5F5"/>
<path d="M40.5409 229.952C40.5409 235.114 38.3961 240.065 34.5784 243.715C30.7607 247.365 25.5828 249.416 20.1838 249.416H20.1068C14.7515 249.353 9.63793 247.275 5.87424 243.632C2.11055 239.989 0 235.074 0 229.954C0 224.833 2.11055 219.919 5.87424 216.276C9.63793 212.633 14.7515 210.555 20.1068 210.492H20.1838C25.5823 210.492 30.7597 212.542 34.5773 216.192C38.395 219.841 40.5401 224.791 40.5409 229.952Z" fill="#444C5C"/>
<path d="M20.0915 248.124C30.629 248.124 39.1713 239.957 39.1713 229.882C39.1713 219.807 30.629 211.64 20.0915 211.64C9.55404 211.64 1.01172 219.807 1.01172 229.882C1.01172 239.957 9.55404 248.124 20.0915 248.124Z" fill="#F9F9FF"/>
<path d="M20.6055 211.498H19.5806V215.762H20.6055V211.498Z" fill="#444C5C"/>
<path opacity="0.5" d="M11.2114 213.621L10.2742 214.018L11.3009 216.235L12.2381 215.839L11.2114 213.621Z" fill="#444C5C"/>
<path opacity="0.5" d="M11.0335 246.423L10.1255 245.967L11.3074 243.819L12.2154 244.275L11.0335 246.423Z" fill="#444C5C"/>
<path opacity="0.5" d="M3.97552 239.908L3.30762 239.167L5.22822 237.577L5.89612 238.319L3.97552 239.908Z" fill="#444C5C"/>
<path opacity="0.5" d="M35.3791 222.358L34.7112 221.616L36.6287 220.027L37.2997 220.769L35.3791 222.358Z" fill="#444C5C"/>
<path opacity="0.5" d="M28.8663 216.405L27.9614 215.948L29.1433 213.8L30.0482 214.256L28.8663 216.405Z" fill="#444C5C"/>
<path opacity="0.5" d="M5.91773 221.55L5.28676 222.321L3.28613 220.832L3.9171 220.061L5.91773 221.55Z" fill="#444C5C"/>
<path opacity="0.5" d="M37.5396 238.321L36.9086 239.092L34.908 237.603L35.5358 236.829L37.5396 238.321Z" fill="#444C5C"/>
<path opacity="0.5" d="M29.9255 243.172L28.9883 243.569L30.015 245.786L30.9522 245.39L29.9255 243.172Z" fill="#444C5C"/>
<path d="M20.6824 244.025H19.6575V248.289H20.6824V244.025Z" fill="#444C5C"/>
<path d="M1.01172 229.39V230.37H5.47157V229.39H1.01172Z" fill="#444C5C"/>
<path d="M34.7085 229.247V230.227H39.1684V229.247H34.7085Z" fill="#444C5C"/>
<path d="M20.6055 218.017H19.5806V229.393H20.6055V218.017Z" fill="#E1B16A"/>
<path d="M14.8804 232.836L14.3726 232.059L20.0974 228.625L20.6022 229.402L14.8804 232.836Z" fill="#E1B16A"/>
<path opacity="0.1" d="M40.541 229.952C40.541 235.114 38.3962 240.065 34.5785 243.715C30.7608 247.365 25.5829 249.416 20.1839 249.416H20.1069V210.492H20.1839C25.5824 210.492 30.7598 212.542 34.5775 216.192C38.3951 219.841 40.5402 224.791 40.541 229.952Z" fill="black"/>
<path d="M181.351 65.7377V75.743C181.351 76.9051 180.872 78.0204 180.017 78.8467C179.163 79.6731 178.002 80.144 176.787 80.1572H170.988C169.763 80.1572 168.589 79.6921 167.723 78.8643C166.858 78.0365 166.371 76.9137 166.371 75.743V65.7377C166.377 64.5686 166.865 63.449 167.73 62.6224C168.594 61.7957 169.765 61.3289 170.988 61.3235H176.734C177.927 61.3241 179.073 61.7684 179.929 62.5624C180.273 62.8741 180.562 63.2356 180.788 63.6336C181.158 64.2783 181.352 65.0021 181.351 65.7377Z" fill="#FFE338"/>
<path d="M195.072 52.9574C195.072 60.332 191.443 66.8443 185.906 70.7405C184.501 71.7329 182.97 72.5516 181.351 73.1771C180.219 73.6119 179.049 73.9478 177.854 74.1806C176.56 74.4319 175.244 74.5601 173.924 74.5631H173.859C171.293 74.5635 168.751 74.093 166.371 73.1771C164.607 72.4954 162.949 71.5844 161.446 70.4698C156.124 66.5441 152.662 60.1701 152.662 52.9574C152.662 41.0246 162.157 31.3517 173.871 31.3517H173.936C185.61 31.387 195.072 41.0452 195.072 52.9574Z" fill="#FFE338"/>
<path d="M183.478 82.2406C183.476 82.5133 183.362 82.7744 183.161 82.9672C182.959 83.16 182.686 83.269 182.401 83.2706H165.319C165.033 83.2698 164.76 83.161 164.558 82.968C164.356 82.775 164.242 82.5135 164.241 82.2406C164.24 82.106 164.266 81.9725 164.319 81.8477C164.372 81.7229 164.45 81.6094 164.549 81.5137C164.752 81.3242 165.025 81.2185 165.309 81.2194H182.392C182.677 81.2179 182.952 81.3244 183.155 81.5157C183.359 81.7071 183.475 81.9677 183.478 82.2406V82.2406Z" fill="#444C5C"/>
<path d="M183.478 84.8149C183.476 85.0876 183.362 85.3487 183.161 85.5415C182.959 85.7343 182.686 85.8434 182.401 85.8449H165.318C165.033 85.8449 164.759 85.7364 164.557 85.5432C164.355 85.3501 164.241 85.0881 164.241 84.8149C164.241 84.5418 164.355 84.2798 164.557 84.0866C164.759 83.8935 165.033 83.785 165.318 83.785H182.401C182.686 83.7857 182.96 83.8945 183.162 84.0875C183.363 84.2805 183.477 84.542 183.478 84.8149V84.8149Z" fill="#444C5C"/>
<path d="M181.351 87.167V89.7125C181.348 90.5981 180.978 91.4466 180.323 92.0729C179.668 92.6992 178.781 93.0523 177.854 93.0554H169.852C168.925 93.0531 168.037 92.7002 167.382 92.0737C166.727 91.4473 166.358 90.5984 166.355 89.7125V87.167C166.354 86.7121 166.453 86.262 166.645 85.8457C166.915 85.2464 167.362 84.7357 167.932 84.3765C168.502 84.0173 169.169 83.8253 169.852 83.824H177.854C178.537 83.826 179.204 84.0184 179.773 84.3775C180.343 84.7366 180.791 85.2469 181.062 85.8457C181.253 86.262 181.352 86.7121 181.351 87.167V87.167Z" fill="#444C5C"/>
<path d="M173.859 66.7326C179.809 66.7326 184.632 60.809 184.632 53.5019C184.632 46.1948 179.809 40.2713 173.859 40.2713C167.91 40.2713 163.087 46.1948 163.087 53.5019C163.087 60.809 167.91 66.7326 173.859 66.7326Z" fill="#FED000"/>
<path d="M171.988 80.0097L166.497 54.6049L169.243 57.1268L170.757 54.6049L171.988 57.1268L173.013 54.6049L174.346 57.1268L175.475 54.6049L176.605 57.0091L178.039 54.6049L179.169 57.1268L181.348 54.6049L176.731 80.4511" stroke="white" stroke-width="2" stroke-miterlimit="10"/>
<path d="M173.924 83.8232V83.785H182.401C182.686 83.7857 182.96 83.8945 183.162 84.0875C183.363 84.2805 183.477 84.542 183.478 84.8149C183.476 85.0876 183.362 85.3487 183.161 85.5415C182.959 85.7344 182.686 85.8434 182.401 85.8449H181.062C181.254 86.2612 181.352 86.7113 181.351 87.1662V89.7117C181.348 90.5973 180.979 91.4458 180.324 92.0721C179.669 92.6984 178.781 93.0516 177.855 93.0547H173.924V83.8232Z" fill="#231F20"/>
<path d="M183.478 82.2408C183.476 82.5135 183.362 82.7746 183.161 82.9674C182.959 83.1603 182.686 83.2693 182.401 83.2708H173.924V81.2109H182.401C182.686 81.2117 182.96 81.3204 183.162 81.5134C183.363 81.7064 183.477 81.9679 183.478 82.2408V82.2408Z" fill="#231F20"/>
<path opacity="0.1" d="M195.072 52.9574C195.072 60.332 191.444 66.8443 185.907 70.7405C184.502 71.733 182.971 72.5516 181.351 73.1771V75.7432C181.351 76.9053 180.872 78.0205 180.018 78.8469C179.163 79.6733 178.002 80.1442 176.787 80.1573H173.924V31.3517C185.611 31.387 195.072 41.0452 195.072 52.9574Z" fill="#231F20"/>
<path d="M268.474 116.191H245.664C242.264 116.191 239.508 118.826 239.508 122.076V134.506C239.508 137.757 242.264 140.392 245.664 140.392H268.474C271.874 140.392 274.63 137.757 274.63 134.506V122.076C274.63 118.826 271.874 116.191 268.474 116.191Z" fill="#444C5C"/>
<path d="M261.872 148.167L268.04 137.95H255.704L261.872 148.167Z" fill="#444C5C"/>
<path d="M266.549 123.248H247.073C246.671 123.248 246.346 123.559 246.346 123.943V124.172C246.346 124.556 246.671 124.867 247.073 124.867H266.549C266.951 124.867 267.276 124.556 267.276 124.172V123.943C267.276 123.559 266.951 123.248 266.549 123.248Z" fill="#ABD8D3"/>
<path d="M266.549 126.632H247.073C246.671 126.632 246.346 126.943 246.346 127.327V127.556C246.346 127.94 246.671 128.251 247.073 128.251H266.549C266.951 128.251 267.276 127.94 267.276 127.556V127.327C267.276 126.943 266.951 126.632 266.549 126.632Z" fill="#ABD8D3"/>
<path d="M266.549 130.096H247.073C246.671 130.096 246.346 130.406 246.346 130.79V131.02C246.346 131.403 246.671 131.714 247.073 131.714H266.549C266.951 131.714 267.276 131.403 267.276 131.02V130.79C267.276 130.406 266.951 130.096 266.549 130.096Z" fill="#ABD8D3"/>
<g opacity="0.5">
<path opacity="0.5" d="M23.1788 143.659C30.6365 143.803 36.5214 146.352 41.446 151.478C42.2094 152.272 42.3971 153.102 42.0216 153.929C41.6769 154.683 40.929 155.142 40.1749 154.915C39.7253 154.759 39.3248 154.495 39.0114 154.15C35.8781 150.889 32.2124 148.729 27.9526 147.911C20.5657 146.493 14.1298 148.6 8.66041 154.191C8.06946 154.794 7.45388 155.15 6.65363 154.871C6.33505 154.755 6.05726 154.556 5.85244 154.295C5.64763 154.035 5.52416 153.724 5.49635 153.4C5.4469 153.067 5.48022 152.728 5.5936 152.41C5.70698 152.092 5.89721 151.804 6.14886 151.569C9.84232 147.658 14.216 145.163 19.2791 144.168C20.7719 143.862 22.3108 143.765 23.1788 143.659Z" fill="black"/>
<path opacity="0.5" d="M24.4775 151.304C29.0482 151.38 33.5727 153.364 37.34 157.342C37.6815 157.671 37.8987 158.099 37.9573 158.559C38.0158 159.019 37.9123 159.485 37.6632 159.882C37.1861 160.629 36.312 160.924 35.5671 160.541C35.2949 160.383 35.0507 160.184 34.8438 159.953C28.4603 153.455 19.3005 153.42 12.8985 159.885C12.2829 160.497 11.6674 160.906 10.8363 160.582C9.55593 160.091 9.29738 158.417 10.3408 157.307C12.344 155.119 14.8724 153.427 17.7092 152.378C19.6883 151.666 21.7259 151.31 24.4775 151.304Z" fill="black"/>
<path opacity="0.5" d="M23.9977 159.209C27.2756 159.294 30.1811 160.571 32.5942 163.132C32.8902 163.435 33.0835 163.817 33.1489 164.227C33.2142 164.637 33.1486 165.056 32.9605 165.43C32.5973 166.166 31.8371 166.575 31.0737 166.36C30.7323 166.254 30.4235 166.069 30.175 165.821C26.3276 162.034 21.2984 162.022 17.5156 165.807C16.7154 166.607 15.6412 166.616 14.961 165.827C14.6326 165.436 14.4648 164.943 14.4891 164.442C14.5135 163.941 14.7284 163.466 15.0933 163.105C17.5464 160.504 20.5073 159.247 23.9977 159.209Z" fill="black"/>
<path opacity="0.5" d="M26.352 169.882C26.352 171.4 25.1947 172.63 23.8035 172.615C22.4123 172.601 21.2981 171.365 21.3104 169.829C21.3227 168.293 22.4431 167.089 23.8527 167.107C25.2624 167.124 26.3581 168.334 26.352 169.882Z" fill="black"/>
</g>
<path d="M29.0911 213.899H29.2973H29.3434H31.6796" stroke="#231F20" stroke-miterlimit="10"/>
<path d="M20.6055 213.855C20.4318 213.829 20.2601 213.792 20.0915 213.744C19.9158 213.691 19.7449 213.626 19.5806 213.547" stroke="#231F20" stroke-miterlimit="10"/>
<path d="M46.4874 264.853H21.181C20.2014 264.853 19.262 264.481 18.5693 263.819C17.8767 263.157 17.4875 262.258 17.4875 261.322V247.953" stroke="white" stroke-width="2" stroke-miterlimit="10"/>
<path d="M58.3065 170.206H26.3303" stroke="white" stroke-width="2" stroke-miterlimit="10"/>
<path d="M17.7953 211.772C17.6285 211.42 17.5244 211.044 17.4875 210.66C17.4875 210.563 17.4875 210.466 17.4875 210.366V173.737C17.4875 172.8 17.8767 171.902 18.5693 171.24C19.262 170.578 20.2014 170.206 21.181 170.206H21.3318" stroke="white" stroke-width="2" stroke-miterlimit="10"/>
<path d="M97.1465 140.393V129.546" stroke="#231F20" stroke-width="2" stroke-miterlimit="10"/>
<path d="M36.9402 66.906V102.555C36.9402 103.491 37.3293 104.389 38.022 105.052C38.7146 105.714 39.6541 106.086 40.6336 106.086H71.9357" stroke="white" stroke-width="2" stroke-miterlimit="10"/>
<path d="M36.2319 21.1373V4.53131C36.2319 3.59475 36.6211 2.69654 37.3137 2.0343C38.0064 1.37205 38.9458 1 39.9254 1H170.166C171.146 1 172.085 1.37205 172.778 2.0343C173.47 2.69654 173.86 3.59475 173.86 4.53131V31.3516" stroke="white" stroke-width="2" stroke-miterlimit="10"/>
<path d="M219.923 70.7402H185.906" stroke="white" stroke-width="2" stroke-miterlimit="10"/>
<path d="M256.812 116.191V104.564V95.1093" stroke="white" stroke-width="2" stroke-miterlimit="10"/>
<path d="M256.812 184.372V162.382V140.392V139.786" stroke="white" stroke-width="2" stroke-miterlimit="10"/>
<path d="M256.811 209.862V253.98C256.811 254.917 256.422 255.815 255.729 256.477C255.037 257.139 254.097 257.511 253.118 257.511H231.619" stroke="white" stroke-width="2" stroke-miterlimit="10"/>
<path opacity="0.1" d="M89.9068 50.6531C89.8922 54.9598 88.0961 59.0861 84.9106 62.1312C81.7251 65.1763 77.409 66.8928 72.9045 66.906H20.8421C19.5406 66.9069 18.2434 66.7637 16.9763 66.4793L34.314 56.2002L52.5751 45.3679L71.0732 34.4003L81.2456 28.3676C81.3819 29.2286 81.4498 30.0982 81.4487 30.969C81.4497 32.7367 81.1726 34.4946 80.6269 36.1836C83.4145 37.5479 85.7551 39.6199 87.3921 42.1724C89.0291 44.7248 89.8991 47.659 89.9068 50.6531V50.6531Z" fill="#231F20"/>
<path opacity="0.1" d="M274.085 86.3487C273.401 88.8534 271.869 91.0713 269.728 92.6561C267.587 94.2409 264.958 95.1035 262.25 95.1092H226.531C218.972 95.1092 212.767 90.0094 212.573 83.7178C212.573 83.6178 212.573 83.5177 212.573 83.4236C212.573 83.3294 212.573 83.2234 212.573 83.1293C212.669 80.0335 214.22 77.229 216.67 75.1838C217.602 74.4086 218.637 73.7537 219.748 73.2357L220.871 73.5065L222.235 73.836L238.738 77.8235L240.801 78.3237L242.777 78.8005L243.608 79.0006L261.392 83.3L266.71 84.5859L274.085 86.3487Z" fill="#231F20"/>
</svg>
